<?xml version="1.0" encoding="UTF-8"?>
<svg width="204.208621px" height="50.1px" viewBox="0 0 204.208621 50.1" version="1.1" xmlns="http://www.w3.org/2000/svg" xmlns:xlink="http://www.w3.org/1999/xlink">
    <title>All of me</title>
    <g id="Page-1" stroke="none" stroke-width="1" fill="none" fill-rule="evenodd">
        <g id="Home" transform="translate(-160.15, -1017.8)" fill="#000000" fill-rule="nonzero">
            <g id="title" transform="translate(160.15, 1009)">
                <g id="All-of-me" transform="translate(0, 8.8)">
                    <path d="M0,38.2 L0.25,36.7 L0.85,36.7 C2.08333333,36.7 3.06666667,36.4333333 3.8,35.9 C4.43333333,35.4 5.15,34.45 5.95,33.05 L20.05,8.3 C20.7833333,7.03333333 21.8666667,5.15 23.3,2.65 L26,1.9 L26.7,2.3 C27.0333333,4.16666667 27.5166667,7 28.15,10.8 L31.8,31.7 C32.1333333,33.6666667 32.4833333,34.9333333 32.85,35.5 C33.4166667,36.3 34.4333333,36.7 35.9,36.7 L37.05,36.7 L36.8,38.2 C36.2333333,38.2 34.9833333,38.1666667 33.05,38.1 C31.5166667,38.0333333 30.2666667,38 29.3,38 C28.3333333,38 27.0666667,38.0333333 25.5,38.1 C23.5333333,38.1666667 22.2666667,38.2 21.7,38.2 L21.95,36.7 L23.2,36.7 C24.1,36.7 24.7166667,36.6333333 25.05,36.5 C25.5833333,36.3 25.85,35.8333333 25.85,35.1 C25.85,34.9 25.75,34.1333333 25.55,32.8 L24.55,26.1 L12.8,26.1 L9.6,32.3 C8.9,33.6666667 8.55,34.6833333 8.55,35.35 C8.55,36.25 9.63333333,36.7 11.8,36.7 L12.85,36.7 L12.65,38.2 C12.1833333,38.2 11.1333333,38.1666667 9.5,38.1 C8.16666667,38.0333333 7.1,38 6.3,38 C5.6,38 4.55,38.0333333 3.15,38.1 C1.75,38.1666667 0.7,38.2 0,38.2 Z M24.15,23.6 L21.8,9.9 L21.7,9.9 L14.2,23.6 L24.15,23.6 Z" id="形狀"></path>
                    <path d="M41.0448276,29.6 L47.1948276,4.3 L44.0448276,2.65 L44.2948276,1.75 C46.9948276,1.65 49.9448276,1.06666667 53.1448276,0 L53.7448276,0.55 C52.5781609,4.45 51.5281609,8.28333333 50.5948276,12.05 L45.7948276,31.1 C45.4948276,32.3 45.3448276,33.1 45.3448276,33.5 C45.3448276,34.1333333 45.5948276,34.45 46.0948276,34.45 C46.9281609,34.45 48.4614943,33.2333333 50.6948276,30.8 L51.6448276,31.8 C49.1114943,34.6 47.2031609,36.4916667 45.9198276,37.475 C44.6364943,38.4583333 43.4114943,38.95 42.2448276,38.95 C40.5781609,38.95 39.7448276,38.0166667 39.7448276,36.15 C39.7448276,35.35 40.1781609,33.1666667 41.0448276,29.6 Z" id="路徑"></path>
                    <path d="M56.1896552,29.6 L62.3396552,4.3 L59.1896552,2.65 L59.4396552,1.75 C62.1396552,1.65 65.0896552,1.06666667 68.2896552,0 L68.8896552,0.55 C67.7229885,4.45 66.6729885,8.28333333 65.7396552,12.05 L60.9396552,31.1 C60.6396552,32.3 60.4896552,33.1 60.4896552,33.5 C60.4896552,34.1333333 60.7396552,34.45 61.2396552,34.45 C62.0729885,34.45 63.6063218,33.2333333 65.8396552,30.8 L66.7896552,31.8 C64.2563218,34.6 62.3479885,36.4916667 61.0646552,37.475 C59.7813218,38.4583333 58.5563218,38.95 57.3896552,38.95 C55.7229885,38.95 54.8896552,38.0166667 54.8896552,36.15 C54.8896552,35.35 55.3229885,33.1666667 56.1896552,29.6 Z" id="路徑"></path>
                    <path d="M93.4793103,37.05 C96.145977,37.05 98.2626437,35.1333333 99.8293103,31.3 C101.062644,28.3 101.67931,25.2833333 101.67931,22.25 C101.67931,18.6833333 100.345977,16.9 97.6793103,16.9 C95.045977,16.9 92.945977,18.7333333 91.3793103,22.4 C90.1126437,25.3 89.4793103,28.2833333 89.4793103,31.35 C89.4793103,35.15 90.8126437,37.05 93.4793103,37.05 Z M97.5293103,15 C100.695977,15 103.145977,15.9333333 104.87931,17.8 C106.47931,19.5333333 107.27931,21.8166667 107.27931,24.65 C107.27931,28.45 106.02931,31.75 103.52931,34.55 C100.895977,37.4833333 97.6126437,38.95 93.6793103,38.95 C90.7126437,38.95 88.3126437,37.9666667 86.4793103,36 C84.745977,34.1666667 83.8793103,31.9333333 83.8793103,29.3 C83.8793103,25.3 85.2626437,21.9 88.0293103,19.1 C90.695977,16.3666667 93.8626437,15 97.5293103,15 Z" id="形狀"></path>
                    <path d="M109.624138,49.7 L116.474138,18.25 L111.624138,18.25 L112.174138,15.75 L117.124138,15.75 C117.857471,11.0166667 119.624138,7.16666667 122.424138,4.2 C125.057471,1.4 127.957471,0 131.124138,0 C132.624138,0 133.374138,0.666666667 133.374138,2 C133.374138,4.2 132.757471,5.3 131.524138,5.3 C131.024138,5.3 130.324138,5.03333333 129.424138,4.5 C128.524138,3.96666667 127.690805,3.7 126.924138,3.7 C125.957471,3.7 125.207471,4.33333333 124.674138,5.6 C124.374138,6.33333333 124.057471,7.68333333 123.724138,9.65 L122.674138,15.75 L128.424138,15.75 L127.874138,18.25 L122.024138,18.25 C121.124138,22.7166667 119.840805,27.8666667 118.174138,33.7 C116.640805,38.7333333 115.107471,43.7833333 113.574138,48.85 L110.174138,50.1 L109.624138,49.7 Z" id="路徑"></path>
                    <path d="M142.813793,35.15 L146.663793,23.45 C147.097126,22.1166667 147.313793,21.3 147.313793,21 C147.313793,20.5333333 147.08046,20.3 146.613793,20.3 C146.113793,20.3 144.83046,21.25 142.763793,23.15 L141.813793,22.15 C144.08046,19.65 145.447126,18.1833333 145.913793,17.75 C147.88046,15.9166667 149.53046,15 150.863793,15 C152.43046,15 153.213793,15.8333333 153.213793,17.5 C153.213793,18.2666667 152.78046,19.9 151.913793,22.4 C150.713793,25.7 150.113793,27.3666667 150.113793,27.4 L150.213793,27.5 C151.747126,25 153.797126,22.45 156.363793,19.85 C159.53046,16.6166667 162.03046,15 163.863793,15 C165.43046,15 166.213793,15.8333333 166.213793,17.5 C166.213793,18.2666667 165.78046,19.9 164.913793,22.4 C163.713793,25.7 163.113793,27.3666667 163.113793,27.4 L163.213793,27.5 C164.78046,24.9333333 166.847126,22.3833333 169.413793,19.85 C172.647126,16.6166667 175.297126,15 177.363793,15 C179.197126,15 180.113793,15.8833333 180.113793,17.65 C180.113793,18.55 179.25546,21.3083333 177.538793,25.925 C175.822126,30.5416667 174.963793,33.1666667 174.963793,33.8 C174.963793,34.2333333 175.163793,34.45 175.563793,34.45 C176.13046,34.45 177.58046,33.2833333 179.913793,30.95 L180.863793,32.05 C178.897126,34.45 177.247126,36.15 175.913793,37.15 C174.347126,38.35 172.813793,38.95 171.313793,38.95 C169.813793,38.95 169.063793,38.1666667 169.063793,36.6 C169.063793,35.7 169.822126,33.05 171.338793,28.65 C172.85546,24.25 173.613793,21.8833333 173.613793,21.55 C173.613793,20.7166667 173.263793,20.3 172.563793,20.3 C171.363793,20.3 169.713793,21.5666667 167.613793,24.1 C165.68046,26.4 164.147126,28.75 163.013793,31.15 C162.18046,33.1166667 161.33046,35.0833333 160.463793,37.05 C160.03046,37.9833333 159.43046,38.45 158.663793,38.45 C156.397126,38.45 155.263793,38.1166667 155.263793,37.45 C155.263793,37.0833333 155.53046,36.1333333 156.063793,34.6 L159.863793,23.65 C160.163793,22.7833333 160.313793,22 160.313793,21.3 C160.313793,20.6333333 160.013793,20.3 159.413793,20.3 C158.247126,20.3 156.513793,21.7333333 154.213793,24.6 C152.413793,26.8333333 150.98046,28.9166667 149.913793,30.85 C149.213793,32.15 148.33046,34.1 147.263793,36.7 C146.797126,37.8666667 146.23046,38.45 145.563793,38.45 C143.263793,38.45 142.113793,38.2 142.113793,37.7 C142.113793,37.4333333 142.347126,36.5833333 142.813793,35.15 Z" id="路徑"></path>
                    <path d="M201.558621,31.65 L202.508621,32.85 C200.441954,34.75 198.675287,36.1333333 197.208621,37 C194.975287,38.3 192.691954,38.95 190.358621,38.95 C188.191954,38.95 186.525287,38.1666667 185.358621,36.6 C184.325287,35.2 183.808621,33.4333333 183.808621,31.3 C183.808621,27.3 185.375287,23.5833333 188.508621,20.15 C191.641954,16.7166667 195.108621,15 198.908621,15 C202.441954,15 204.208621,16.4333333 204.208621,19.3 C204.208621,21.9666667 202.408621,24.15 198.808621,25.85 C196.275287,27.05 193.241954,27.8833333 189.708621,28.35 C189.508621,29.15 189.408621,30.0666667 189.408621,31.1 C189.408621,32.3333333 189.750287,33.3833333 190.433621,34.25 C191.116954,35.1166667 192.075287,35.55 193.308621,35.55 C195.708621,35.55 198.458621,34.25 201.558621,31.65 Z M198.908621,18.85 C198.908621,17.55 198.291954,16.9 197.058621,16.9 C195.691954,16.9 194.241954,18.1 192.708621,20.5 C191.408621,22.6 190.558621,24.5833333 190.158621,26.45 C192.125287,26.3833333 194.025287,25.65 195.858621,24.25 C197.891954,22.7166667 198.908621,20.9166667 198.908621,18.85 Z" id="形狀"></path>
                </g>
            </g>
        </g>
    </g>
</svg>