<?xml version="1.0" encoding="UTF-8"?>
<svg width="327px" height="25px" viewBox="0 0 327 25" version="1.1" xmlns="http://www.w3.org/2000/svg" xmlns:xlink="http://www.w3.org/1999/xlink">
    <title>群組copy@2x</title>
    <defs>
        <polygon id="path-1" points="0 25 326.515152 25 326.515152 0 0 0"></polygon>
    </defs>
    <g id="Page-1" stroke="none" stroke-width="1" fill="none" fill-rule="evenodd">
        <g id="Home" transform="translate(-557.000000, -111.000000)">
            <g id="群組copy" transform="translate(557.000000, 111.000000)">
                <path d="M12.0754826,6.06060606 C9.67486469,6.06060606 7.69196261,7.36003666 5.5775882,8.39493172 L5.5775882,6.31391887 L0,6.31391887 L0,20.4545455 L5.77146826,20.4545455 L5.77146826,9.78334245 C7.01795896,9.16288638 8.34349946,8.51116703 9.53756765,8.51116703 C11.103586,8.51116703 11.6577668,9.13242471 11.6577668,10.0687202 L11.6577668,20.4545455 L17.4242424,20.4545455 L17.4242424,9.71119639 C17.4242424,7.07465893 15.5728127,6.06060606 12.0754826,6.06060606" id="Fill-1" fill="#131413"></path>
                <path d="M128.590346,16.4605104 C128.590346,17.5292038 127.293401,18.5444231 125.378788,18.5444231 C123.458646,18.5444231 122.150643,17.5292038 122.150643,16.4605104 L122.150643,9.82501755 C122.150643,8.74767396 123.458646,7.61921554 125.378788,7.61921554 C127.293401,7.61921554 128.590346,8.74767396 128.590346,9.82501755 L128.590346,16.4605104 Z M125.378788,6.06060606 C119.889283,6.06060606 116.666667,7.64909806 116.666667,11.3215028 L116.666667,15.177921 C116.666667,18.8707717 119.889283,20.4545455 125.378788,20.4545455 C130.862764,20.4545455 134.090909,18.8707717 134.090909,15.177921 L134.090909,11.3215028 C134.090909,7.64909806 130.862764,6.06060606 125.378788,6.06060606 L125.378788,6.06060606 Z" id="Fill-3" fill="#131413"></path>
                <path d="M203.472017,17.0036291 C202.352292,17.6922184 201.323378,18.0078219 200.064195,18.0078219 C198.539067,18.0078219 197.279884,17.44914 197.279884,14.649355 L197.279884,11.6694529 C197.279884,8.86647998 198.539067,8.30301628 200.064195,8.30301628 C201.323378,8.30301628 202.352292,8.60108619 203.472017,9.30720902 L203.472017,17.0036291 Z M203.472017,7.539511 C200.783381,6.39505006 199.351495,5.8666534 197.826367,5.8666534 C193.471523,5.8666534 191.666667,7.83758091 191.666667,11.4494869 L191.666667,14.8549754 C191.666667,18.4732572 193.471523,20.4545455 197.826367,20.4545455 C200.32041,20.4545455 202.847695,19.255093 203.827961,18.3688531 L203.91715,18.3688531 L203.91715,20.177197 L209.090909,20.177197 L209.090909,1.51515152 L203.472017,1.51515152 L203.472017,7.539511 Z" id="Fill-5" fill="#131413"></path>
                <path d="M255.271921,11.8960425 C255.271921,14.2832067 254.477515,14.7889817 252.065836,14.7889817 C250.363188,14.7889817 249.373636,13.9340183 249.373636,12.1943402 C249.373636,12.1434495 249.380141,10.5517457 249.380141,10.4734524 C249.41917,8.47070858 250.240409,7.52962255 252.32847,7.52962255 C254.214881,7.52962255 255.176788,8.49497951 255.271921,10.1352251 L255.271921,11.8960425 Z M249.737095,20.751803 L255.90208,21.0477518 C257.616925,21.1205647 257.963309,21.3217786 257.963309,21.7790117 C257.963309,22.4969617 256.39401,22.8735527 253.730269,22.8735527 C250.390021,22.8735527 248.55321,22.5744721 248.55321,21.8596539 C248.55321,21.3460495 249.139461,21.0743716 249.737095,20.751803 L249.737095,20.751803 Z M252.32847,6.06162229 C246.006555,6.00525108 243.98029,8.30081201 243.98029,11.2751763 C243.98029,13.5542956 244.918617,15.0387375 247.660417,16.0573339 C246.264311,16.5443185 244.242924,17.2888883 244.242924,18.3779487 C244.242924,19.2681441 245.236542,19.8780492 246.577357,20.3352824 C245.236542,20.8167865 243.181818,21.445482 243.181818,22.4969617 C243.181818,24.0268137 246.486289,25 252.517925,25 C259.056939,25 263.356654,23.8733587 263.356654,21.5316047 C263.356654,16.5145671 249.184995,19.1898507 249.184995,17.4478237 C249.184995,17.1307357 249.870445,16.8989874 250.172921,16.6468828 C251.032376,16.7995548 251.702377,16.8269575 252.517925,16.8269575 C258.063321,16.8269575 260.660388,14.8343918 260.660388,11.3988798 C260.660388,10.5595751 260.302621,9.87137656 259.951358,8.9623908 C260.709988,8.8198969 261.302744,8.64530274 261.877611,8.64530274 C262.32482,8.64530274 263.179397,8.80971877 263.636364,8.85512891 L263.636364,6.06162229 C261.520657,6.06162229 260.380679,6.83594349 258.945543,7.8443618 C257.511221,6.8570827 255.432917,6.08276149 252.32847,6.06162229 L252.32847,6.06162229 Z" id="Fill-7" fill="#131413"></path>
                <path d="M278.29031,16.7236133 C277.079981,17.3518376 275.754937,17.9928665 274.557078,17.9928665 C272.991797,17.9928665 272.438172,17.3822485 272.438172,16.4419127 L272.438172,6.06060606 L266.666667,6.06060606 L266.666667,16.8108445 C266.666667,19.4301797 268.499616,20.4545455 272.027524,20.4545455 C274.419918,20.4545455 276.400834,19.509408 278.483996,18.4658354 L278.483996,20.1848492 L284.090909,20.1848492 L284.090909,6.06060606 L278.29031,6.06060606 L278.29031,16.7236133 Z" id="Fill-9" fill="#131413"></path>
                <path d="M300.550193,11.9375612 L294.124668,11.9375612 L294.124668,9.57985858 C294.124668,8.35067608 295.121896,7.59177581 297.341379,7.59177581 C299.568757,7.59177581 300.550193,8.35067608 300.550193,9.57985858 L300.550193,11.9375612 Z M297.341379,6.06060606 C292.101789,6.06060606 288.636364,7.94330785 288.636364,10.9922781 L288.636364,15.5181548 C288.636364,18.5513966 292.101789,20.4545455 297.341379,20.4545455 C302.866793,20.4545455 305.783467,18.7676635 306.060606,15.9097946 L300.550193,15.9097946 C300.550193,16.976187 299.65561,17.8349633 297.341379,17.8349633 C295.512733,17.8349633 294.124668,17.2357073 294.124668,15.847667 L294.124668,14.0058593 L306.060606,14.0058593 L306.060606,10.7925261 C306.060606,7.94330785 302.437267,6.06060606 297.341379,6.06060606 L297.341379,6.06060606 Z" id="Fill-11" fill="#131413"></path>
                <path d="M56.2887118,6.06060606 C53.9898533,6.06060606 52.0807944,7.24496311 50.0511212,8.28607698 L50.0511212,6.32148471 L44.6969697,6.32148471 L44.6969697,20.4545455 L50.2268505,20.4545455 L50.2268505,9.78172788 C51.4226084,9.15994043 52.7062309,8.5173467 53.852465,8.5173467 C55.3613405,8.5173467 55.8877295,9.13593319 55.8877295,10.0530097 L60.6060606,8.84224465 C60.1667374,7.10572114 59.6515311,6.06060606 56.2887118,6.06060606" id="Fill-13" fill="#131413"></path>
                <path d="M33.2573914,17.0493246 C31.8760184,17.8145162 30.6212155,18.0410067 28.8534269,18.0410067 C27.2767507,18.0410067 26.2574852,17.4975869 26.2574852,16.5900523 C26.2574852,15.1296608 29.7863566,13.541082 33.2573914,12.8852035 L33.2573914,17.0493246 Z M39.0661986,10.274272 C39.0661986,7.78995495 36.6999269,6.06060606 30.5290122,6.06060606 C25.8434086,6.06060606 21.6121158,7.28113788 21.197201,10.374148 L27.0001408,10.374148 C27.0001408,10.3167389 27.0169051,9.16698538 27.0227725,9.11508132 C27.2013116,8.22091593 28.5944195,7.58705726 30.2524023,7.58705726 C31.8475192,7.58705726 33.1542913,7.99993046 33.2573914,9.10407136 L33.2573914,10.3222439 L33.2573914,11.3375188 C25.9808754,12.5147972 20.4545455,13.909129 20.4545455,17.1279671 C20.4545455,19.371638 22.7286139,20.4545455 26.2172511,20.4545455 C29.1359043,20.4545455 31.4502069,19.7805791 33.1710555,18.8297911 C33.3495946,19.3912987 33.4417979,19.8309103 33.5859703,20.196598 L39.3939394,20.196598 C39.210371,19.8309103 39.0661986,19.4479213 39.0661986,19.0617865 L39.0661986,10.274272 Z" id="Fill-15" fill="#131413"></path>
                <path d="M75.5650253,16.010341 C75.5650253,17.0771702 74.2479482,18.7210463 72.3398043,18.7210463 C70.4379735,18.7210463 69.1256313,17.4789017 69.1256313,16.3963492 L69.1256313,10.5173892 C69.1256313,9.43483665 69.391572,7.71706083 72.3398043,7.74143202 C75.1909722,7.75794153 75.5650253,9.43483665 75.5650253,10.5173892 L75.5650253,11.1188073 L81.0116793,11.1188073 C80.9248737,7.59913571 77.7004419,6.06060606 72.3398043,6.06060606 C66.8710543,6.06060606 63.6363636,7.6525951 63.6363636,11.3326448 L63.6363636,15.1895822 C63.6363636,18.8727766 66.8710543,20.4545455 72.3398043,20.4545455 C77.8251263,20.4545455 81.0606061,18.8727766 81.0606061,15.1895822 L81.0606061,15.1424122 L75.5650253,15.1424122 L75.5650253,16.010341 Z" id="Fill-17" fill="#131413"></path>
                <mask id="mask-2" fill="white">
                    <use xlink:href="#path-1"></use>
                </mask>
                <g id="Clip-20"></g>
                <polygon id="Fill-19" fill="#131413" mask="url(#mask-2)" points="85.6060606 20.4545455 91.6666667 20.4545455 91.6666667 6.06060606 85.6060606 6.06060606"></polygon>
                <polygon id="Fill-21" fill="#131413" mask="url(#mask-2)" points="85.6060606 1.51515152 91.6666667 1.51515152 91.6666667 0 85.6060606 0"></polygon>
                <path d="M181.653357,16.4547872 C181.653357,17.5235389 180.327505,18.5388138 178.417392,18.5388138 C176.484352,18.5388138 175.180637,17.5235389 175.180637,16.4547872 L175.180637,9.81893182 C175.180637,8.74152937 176.484352,7.61300929 178.417392,7.61300929 C180.327505,7.61300929 181.653357,8.74152937 181.653357,9.81893182 L181.653357,16.4547872 Z M178.417392,6.06060606 C172.9274,6.06060606 169.69697,7.64289345 169.69697,11.3154989 L169.69697,15.1721278 C169.69697,18.8651802 172.9274,20.4545455 178.417392,20.4545455 C183.923197,20.4545455 187.121212,18.8651802 187.121212,15.1721278 L187.121212,11.3154989 C187.121212,7.64289345 183.923197,6.06060606 178.417392,6.06060606 L178.417392,6.06060606 Z" id="Fill-22" fill="#131413" mask="url(#mask-2)"></path>
                <path d="M163.060761,6.06060606 C160.811264,6.06060606 158.92765,7.24848653 156.902146,8.28337633 L156.902146,6.32173151 L151.515152,6.32173151 L151.515152,20.4545455 L157.066354,20.4545455 L157.066354,9.78204415 C158.259656,9.16607646 159.540641,8.50845686 160.674158,8.50845686 C162.174354,8.50845686 162.688502,9.13884252 162.688502,10.0736075 L167.424242,8.84727914 C166.975459,7.10590884 166.460514,6.06060606 163.060761,6.06060606" id="Fill-23" fill="#131413" mask="url(#mask-2)"></path>
                <path d="M225.204293,6.06060606 C222.904577,6.06060606 221.000237,7.24848653 219.007416,8.28337633 L219.007416,6.32173151 L213.636364,6.32173151 L213.636364,20.4545455 L219.176407,20.4545455 L219.176407,9.78204415 C220.353766,9.16607646 221.629171,8.50845686 222.768268,8.50845686 C224.278826,8.50845686 224.804931,9.13884252 224.804931,10.0736075 L229.545455,8.84727914 C229.097468,7.10590884 228.587306,6.06060606 225.204293,6.06060606" id="Fill-24" fill="#131413" mask="url(#mask-2)"></path>
                <path d="M101.42331,10.0246354 C101.42331,9.97945392 101.378297,9.68733231 101.389755,9.36950399 L101.389755,9.35859812 C101.401213,9.16073441 101.474052,8.94105896 101.491239,8.93093208 C102.188536,8.16829992 102.924299,7.90889593 104.48667,7.90889593 C106.72997,7.90889593 107.544302,9.19578901 108.050906,10.4850191 L112.79449,9.87273216 C109.832615,6.61421294 107.426449,6.09540496 104.48667,6.06268734 C99.8715786,5.99803109 96.3490827,7.44228034 96.3728169,10.0511211 L96.3482642,10.0542371 C96.3482642,14.6549577 107.634328,14.0161851 107.634328,16.6616384 C107.634328,16.6881241 107.662973,16.9023466 107.634328,17.1594137 C107.606502,17.3674043 107.527933,17.5309924 107.527933,17.5816268 C107.375706,18.2266313 106.279837,18.6091159 104.711737,18.6091159 C102.463527,18.6091159 101.052564,17.041007 100.563965,15.746324 L95.4545455,16.530768 C98.2142705,19.973129 101.28336,20.4545455 104.711737,20.4545455 C109.444682,20.4545455 112.878788,19.0126332 112.878788,16.2846068 C112.878788,12.1964622 101.42331,12.1458278 101.42331,10.0246354" id="Fill-25" fill="#131413" mask="url(#mask-2)"></path>
                <polygon id="Fill-26" fill="#131413" mask="url(#mask-2)" points="326.515152 6.06060606 310.007234 6.06060606 310.007234 8.21451812 320.416253 8.21451812 309.090909 17.5984303 309.090909 20.4545455 326.515152 20.4545455 326.515152 18.3666943 315.020946 18.3666943 326.515152 8.92813912"></polygon>
                <polygon id="Fill-27" fill="#131413" mask="url(#mask-2)" points="232.575758 20.4545455 238.636364 20.4545455 238.636364 6.06060606 232.575758 6.06060606"></polygon>
                <polygon id="Fill-28" fill="#131413" mask="url(#mask-2)" points="232.575758 1.51515152 238.636364 1.51515152 238.636364 0 232.575758 0"></polygon>
            </g>
        </g>
    </g>
</svg>