<?xml version="1.0" encoding="UTF-8"?>
<svg width="262px" height="20px" viewBox="0 0 262 20" version="1.1" xmlns="http://www.w3.org/2000/svg" xmlns:xlink="http://www.w3.org/1999/xlink">
    <title>群組</title>
    <defs>
        <polygon id="path-1" points="0 20 261.176471 20 261.176471 6.68746104e-14 0 6.68746104e-14"></polygon>
    </defs>
    <g id="Page-1" stroke="none" stroke-width="1" fill="none" fill-rule="evenodd">
        <g id="Home" transform="translate(-589.000000, -20.000000)">
            <g id="群組" transform="translate(589.000000, 20.000000)">
                <path d="M9.78392044,4.70588235 C7.83886735,4.70588235 6.23226024,5.76795566 4.51913029,6.61381416 L4.51913029,4.9129244 L0,4.9129244 L0,16.4705882 L4.67621777,16.4705882 L4.67621777,7.74861426 C5.68616214,7.24149228 6.76015506,6.70881763 7.72762515,6.70881763 C8.99646048,6.70881763 9.44547446,7.21659481 9.44547446,7.98186416 L9.44547446,16.4705882 L14.1176471,16.4705882 L14.1176471,7.68964659 C14.1176471,5.53470575 12.6175628,4.70588235 9.78392044,4.70588235" id="Fill-1" fill="#131413"></path>
                <path d="M102.602101,13.2061137 C102.602101,14.0795969 101.551277,14.9093737 100,14.9093737 C98.444243,14.9093737 97.3844595,14.0795969 97.3844595,13.2061137 L97.3844595,7.78267688 C97.3844595,6.90212361 98.444243,5.97979227 100,5.97979227 C101.551277,5.97979227 102.602101,6.90212361 102.602101,7.78267688 L102.602101,13.2061137 Z M100,4.70588235 C95.5522372,4.70588235 92.9411765,6.00421637 92.9411765,9.00581037 L92.9411765,12.1578054 C92.9411765,15.1761107 95.5522372,16.4705882 100,16.4705882 C104.443283,16.4705882 107.058824,15.1761107 107.058824,12.1578054 L107.058824,9.00581037 C107.058824,6.00421637 104.443283,4.70588235 100,4.70588235 L100,4.70588235 Z" id="Fill-3" fill="#131413"></path>
                <path d="M162.506227,13.6838718 C161.598993,14.2399279 160.765335,14.494787 159.745107,14.494787 C158.509402,14.494787 157.489174,14.043635 157.489174,11.7827262 L157.489174,9.37636761 C157.489174,7.11288454 158.509402,6.65787103 159.745107,6.65787103 C160.765335,6.65787103 161.598993,6.89857124 162.506227,7.4687862 L162.506227,13.6838718 Z M162.506227,6.04131806 C160.327813,5.11713219 159.167657,4.69043635 157.931952,4.69043635 C154.403526,4.69043635 152.941176,6.28201828 152.941176,9.19873858 L152.941176,11.9487708 C152.941176,14.8706397 154.403526,16.4705882 157.931952,16.4705882 C159.9527,16.4705882 162.000383,15.5019951 162.794624,14.7863303 L162.866887,14.7863303 L162.866887,16.2466212 L167.058824,16.2466212 L167.058824,1.17647059 L162.506227,1.17647059 L162.506227,6.04131806 Z" id="Fill-5" fill="#131413"></path>
                <path d="M203.852946,9.41816892 C203.852946,11.3458742 203.213267,11.7543024 201.271314,11.7543024 C199.900293,11.7543024 199.103477,11.0638943 199.103477,9.65905304 C199.103477,9.61795733 199.108715,8.33260974 199.108715,8.26938556 C199.140142,6.65211102 199.801427,5.89215637 201.482794,5.89215637 C203.001786,5.89215637 203.776342,6.67171052 203.852946,7.9962571 L203.852946,9.41816892 Z M199.396145,16.569456 L204.360368,16.8084434 C205.74121,16.8672419 206.020129,17.029728 206.020129,17.3989572 C206.020129,17.978723 204.756484,18.2828313 202.611563,18.2828313 C199.921899,18.2828313 198.442846,18.0413149 198.442846,17.4640781 C198.442846,17.0493275 198.914912,16.8299396 199.396145,16.569456 L199.396145,16.569456 Z M201.482794,4.70670299 C196.392207,4.66118158 194.7606,6.51491455 194.7606,8.91680116 C194.7606,10.7572571 195.516167,11.9559875 197.723944,12.7785341 C196.599759,13.1717885 194.97208,13.7730505 194.97208,14.6524988 C194.97208,15.3713577 195.77217,15.8638741 196.851833,16.2331033 C195.77217,16.621932 194.117647,17.1296222 194.117647,17.978723 C194.117647,19.2141234 196.778502,20 201.635348,20 C206.900751,20 210.363005,19.090204 210.363005,17.1991688 C210.363005,13.1477633 198.951577,15.3081336 198.951577,13.9013956 C198.951577,13.6453376 199.503522,13.458194 199.747084,13.2546122 C200.439142,13.3778993 200.978646,13.4000278 201.635348,13.4000278 C206.100661,13.4000278 208.191894,11.7909724 208.191894,9.01669537 C208.191894,8.33893216 207.90381,7.78319161 207.620963,7.04915887 C208.231833,6.93409087 208.709137,6.79310094 209.172037,6.79310094 C209.532143,6.79310094 210.220273,6.92587172 210.588235,6.96254175 L210.588235,4.70670299 C208.884607,4.70670299 207.966664,5.33199013 206.811052,6.14631758 C205.656094,5.34906066 203.982584,4.72377352 201.482794,4.70670299 L201.482794,4.70670299 Z" id="Fill-7" fill="#131413"></path>
                <path d="M222.359003,13.4211576 C221.378358,13.9346289 220.304768,14.4585658 219.334226,14.4585658 C218.065988,14.4585658 217.617424,13.9594848 217.617424,13.1909132 L217.617424,4.70588235 L212.941176,4.70588235 L212.941176,13.4924549 C212.941176,15.6333357 214.426287,16.4705882 217.284705,16.4705882 C219.223095,16.4705882 220.828093,15.698092 222.515933,14.845141 L222.515933,16.2501553 L227.058824,16.2501553 L227.058824,4.70588235 L222.359003,4.70588235 L222.359003,13.4211576 Z" id="Fill-9" fill="#131413"></path>
                <path d="M240.24118,9.50933791 L235.035025,9.50933791 L235.035025,7.58229927 C235.035025,6.57764237 235.843009,5.95736475 237.641301,5.95736475 C239.44599,5.95736475 240.24118,6.57764237 240.24118,7.58229927 L240.24118,9.50933791 Z M237.641301,4.70588235 C233.396027,4.70588235 230.588235,6.24468506 230.588235,8.73672268 L230.588235,12.4358913 C230.588235,14.9150734 233.396027,16.4705882 237.641301,16.4705882 C242.118159,16.4705882 244.481336,15.0918364 244.705882,12.7559931 L240.24118,12.7559931 C240.24118,13.6275956 239.516361,14.3295056 237.641301,14.3295056 C236.159678,14.3295056 235.035025,13.8397113 235.035025,12.7052139 L235.035025,11.1998354 L244.705882,11.1998354 L244.705882,8.5734579 C244.705882,6.24468506 241.770144,4.70588235 237.641301,4.70588235 L237.641301,4.70588235 Z" id="Fill-11" fill="#131413"></path>
                <path d="M44.7233667,4.70588235 C42.8533709,4.70588235 41.3004557,5.67390174 39.6494275,6.52484311 L39.6494275,4.91910824 L35.2941176,4.91910824 L35.2941176,16.4705882 L39.7923736,16.4705882 L39.7923736,7.74729461 C40.7650573,7.23908444 41.8092141,6.71386851 42.741613,6.71386851 C43.9690008,6.71386851 44.3971895,7.21946242 44.3971895,7.96902338 L48.2352941,6.97941978 C47.8779287,5.56009405 47.4588365,4.70588235 44.7233667,4.70588235" id="Fill-13" fill="#131413"></path>
                <path d="M26.8092629,13.6873737 C25.6937636,14.3127935 24.6804733,14.4979126 23.2529321,14.4979126 C21.9797196,14.4979126 21.1566328,14.0537553 21.1566328,13.3119932 C21.1566328,12.1183605 24.0063002,10.8199556 26.8092629,10.2838815 L26.8092629,13.6873737 Z M31.5000456,8.14986936 C31.5000456,6.11934398 29.5892116,4.70588235 24.6060164,4.70588235 C20.8222538,4.70588235 17.4053604,5.70346873 17.0703045,8.23150175 L21.756349,8.23150175 C21.756349,8.18457919 21.7698866,7.24484254 21.7746248,7.2024194 C21.9188004,6.47158454 23.043776,5.9535081 24.3826458,5.9535081 C25.6707496,5.9535081 26.7260065,6.29096484 26.8092629,7.19342056 L26.8092629,8.18907861 L26.8092629,9.01890079 C20.9332622,9.98113456 16.4705882,11.1207742 16.4705882,13.7516511 C16.4705882,15.5854874 18.3069654,16.4705882 21.1241425,16.4705882 C23.4810408,16.4705882 25.3499082,15.9197303 26.7395441,15.1426156 C26.8837197,15.6015568 26.9581766,15.9608679 27.0746001,16.2597581 L31.7647059,16.2597581 C31.616469,15.9608679 31.5000456,15.6478366 31.5000456,15.3322342 L31.5000456,8.14986936 Z" id="Fill-15" fill="#131413"></path>
                <path d="M60.2531969,12.8381734 C60.2531969,13.7101329 59.1860614,15.0537344 57.6400256,15.0537344 C56.0991049,15.0537344 55.0358056,14.0384832 55.0358056,13.1536724 L55.0358056,8.34857817 C55.0358056,7.46376742 55.2512788,6.05976489 57.6400256,6.07968437 C59.9501279,6.09317822 60.2531969,7.46376742 60.2531969,8.34857817 L60.2531969,8.84013969 L64.6662404,8.84013969 C64.5959079,5.96338027 61.983376,4.70588235 57.6400256,4.70588235 C53.2090793,4.70588235 50.5882353,6.00707463 50.5882353,9.01491713 L50.5882353,12.1673365 C50.5882353,15.1777493 53.2090793,16.4705882 57.6400256,16.4705882 C62.084399,16.4705882 64.7058824,15.1777493 64.7058824,12.1673365 L64.7058824,12.1287827 L60.2531969,12.1287827 L60.2531969,12.8381734 Z" id="Fill-17" fill="#131413"></path>
                <mask id="mask-2" fill="white">
                    <use xlink:href="#path-1"></use>
                </mask>
                <g id="Clip-20"></g>
                <polygon id="Fill-19" fill="#131413" mask="url(#mask-2)" points="68.2352941 16.4705882 72.9411765 16.4705882 72.9411765 4.70588235 68.2352941 4.70588235"></polygon>
                <polygon id="Fill-21" fill="#131413" mask="url(#mask-2)" points="68.2352941 1.17647059 72.9411765 1.17647059 72.9411765 6.68746104e-14 68.2352941 6.68746104e-14"></polygon>
                <path d="M144.981543,13.201436 C144.981543,14.0749668 143.907298,14.904789 142.359667,14.904789 C140.79346,14.904789 139.73715,14.0749668 139.73715,13.201436 L139.73715,7.77770279 C139.73715,6.89710141 140.79346,5.97471967 142.359667,5.97471967 C143.907298,5.97471967 144.981543,6.89710141 144.981543,7.77770279 L144.981543,13.201436 Z M142.359667,4.70588235 C137.91151,4.70588235 135.294118,5.99914511 135.294118,9.0009031 L135.294118,12.1530704 C135.294118,15.1715405 137.91151,16.4705882 142.359667,16.4705882 C146.820636,16.4705882 149.411765,15.1715405 149.411765,12.1530704 L149.411765,9.0009031 C149.411765,5.99914511 146.820636,4.70588235 142.359667,4.70588235 L142.359667,4.70588235 Z" id="Fill-22" fill="#131413" mask="url(#mask-2)"></path>
                <path d="M130.568193,4.70588235 C128.738351,4.70588235 127.206133,5.67678156 125.558496,6.52263577 L125.558496,4.91930996 L121.176471,4.91930996 L121.176471,16.4705882 L125.692071,16.4705882 L125.692071,7.74755311 C126.662756,7.24409964 127.704768,6.70660251 128.626822,6.70660251 C129.84715,6.70660251 130.265381,7.22184032 130.265381,7.98585878 L134.117647,6.98353465 C133.752586,5.56024747 133.333707,4.70588235 130.568193,4.70588235" id="Fill-23" fill="#131413" mask="url(#mask-2)"></path>
                <path d="M179.998114,4.70588235 C178.127421,4.70588235 176.578344,5.67678156 174.957293,6.52263577 L174.957293,4.91930996 L170.588235,4.91930996 L170.588235,16.4705882 L175.094758,16.4705882 L175.094758,7.74755311 C176.052475,7.24409964 177.089948,6.70660251 178.016541,6.70660251 C179.245297,6.70660251 179.673255,7.22184032 179.673255,7.98585878 L183.529412,6.98353465 C183.164999,5.56024747 182.75001,4.70588235 179.998114,4.70588235" id="Fill-24" fill="#131413" mask="url(#mask-2)"></path>
                <path d="M81.3066615,7.94583203 C81.3066615,7.90890351 81.2701904,7.67014158 81.2794739,7.41036859 L81.2794739,7.40145481 C81.2887575,7.23973339 81.3477744,7.06018441 81.3616998,7.05190733 C81.9266709,6.4285795 82.5228083,6.2165589 83.7886884,6.2165589 C85.6062775,6.2165589 86.2660736,7.26838482 86.6765397,8.32212084 L90.5199348,7.82167582 C88.1201337,5.158366 86.1705855,4.7343248 83.7886884,4.70758346 C80.0494018,4.65473748 77.1953693,5.8351765 77.2145995,7.96747978 L77.1947062,7.97002657 C77.1947062,11.7303679 86.3390158,11.2082751 86.3390158,13.3705032 C86.3390158,13.392151 86.3622247,13.5672431 86.3390158,13.7773536 C86.31647,13.9473521 86.2528113,14.0810588 86.2528113,14.1224442 C86.1294725,14.6496305 85.241566,14.9622495 83.9710441,14.9622495 C82.1494764,14.9622495 81.0062719,13.6805754 80.6103943,12.6223825 L76.4705882,13.2635379 C78.7066007,16.0771086 81.1932694,16.4705882 83.9710441,16.4705882 C87.8058188,16.4705882 90.5882353,15.2920593 90.5882353,13.0623412 C90.5882353,9.72094744 81.3066615,9.67956204 81.3066615,7.94583203" id="Fill-25" fill="#131413" mask="url(#mask-2)"></path>
                <polygon id="Fill-26" fill="#131413" mask="url(#mask-2)" points="261.176471 4.70588235 247.801258 4.70588235 247.801258 6.46635537 256.234959 6.46635537 247.058824 14.1361784 247.058824 16.4705882 261.176471 16.4705882 261.176471 14.7641093 251.863518 14.7641093 261.176471 7.04962454"></polygon>
                <polygon id="Fill-27" fill="#131413" mask="url(#mask-2)" points="185.882353 16.4705882 190.588235 16.4705882 190.588235 4.70588235 185.882353 4.70588235"></polygon>
                <polygon id="Fill-28" fill="#131413" mask="url(#mask-2)" points="185.882353 1.17647059 190.588235 1.17647059 190.588235 6.68746104e-14 185.882353 6.68746104e-14"></polygon>
            </g>
        </g>
    </g>
</svg>